<svg id="visual" viewBox="0 0 900 600" width="900" height="600" xmlns="http://www.w3.org/2000/svg" xmlns:xlink="http://www.w3.org/1999/xlink" version="1.1"><g stroke-width="1" stroke-linejoin="bevel"><path d="M427 295L383 394L522 337Z" fill="#00101c" stroke="#00101c"></path><path d="M383 394L534 385L522 337Z" fill="#19435d" stroke="#19435d"></path><path d="M383 394L490 474L534 385Z" fill="#112e42" stroke="#112e42"></path><path d="M613 473L599 391L534 385Z" fill="#081a28" stroke="#081a28"></path><path d="M534 385L599 391L522 337Z" fill="#205a7a" stroke="#205a7a"></path><path d="M599 391L595 305L522 337Z" fill="#297ea6" stroke="#297ea6"></path><path d="M522 337L491 191L427 295Z" fill="#205a7a" stroke="#205a7a"></path><path d="M288 313L294 395L383 394Z" fill="#15384f" stroke="#15384f"></path><path d="M383 394L363 505L490 474Z" fill="#081a28" stroke="#081a28"></path><path d="M294 395L363 505L383 394Z" fill="#205a7a" stroke="#205a7a"></path><path d="M427 295L288 313L383 394Z" fill="#297ea6" stroke="#297ea6"></path><path d="M595 305L491 191L522 337Z" fill="#1d4e6b" stroke="#1d4e6b"></path><path d="M427 295L328 187L288 313Z" fill="#00101c" stroke="#00101c"></path><path d="M506 600L613 473L490 474Z" fill="#1d4e6b" stroke="#1d4e6b"></path><path d="M490 474L613 473L534 385Z" fill="#19435d" stroke="#19435d"></path><path d="M599 391L662 396L595 305Z" fill="#19435d" stroke="#19435d"></path><path d="M491 191L423 161L427 295Z" fill="#112e42" stroke="#112e42"></path><path d="M613 473L662 396L599 391Z" fill="#081a28" stroke="#081a28"></path><path d="M423 161L328 187L427 295Z" fill="#112e42" stroke="#112e42"></path><path d="M288 313L236 425L294 395Z" fill="#277297" stroke="#277297"></path><path d="M294 395L270 504L363 505Z" fill="#112e42" stroke="#112e42"></path><path d="M190 307L236 425L288 313Z" fill="#277297" stroke="#277297"></path><path d="M236 425L270 504L294 395Z" fill="#0c2435" stroke="#0c2435"></path><path d="M690 277L629 210L595 305Z" fill="#00101c" stroke="#00101c"></path><path d="M595 305L629 210L491 191Z" fill="#00101c" stroke="#00101c"></path><path d="M491 191L469 106L423 161Z" fill="#297ea6" stroke="#297ea6"></path><path d="M381 600L490 474L363 505Z" fill="#277297" stroke="#277297"></path><path d="M381 600L506 600L490 474Z" fill="#205a7a" stroke="#205a7a"></path><path d="M266 600L381 600L363 505Z" fill="#205a7a" stroke="#205a7a"></path><path d="M662 396L690 277L595 305Z" fill="#277297" stroke="#277297"></path><path d="M588 131L469 106L491 191Z" fill="#1d4e6b" stroke="#1d4e6b"></path><path d="M423 161L423 106L328 187Z" fill="#246688" stroke="#246688"></path><path d="M469 106L423 106L423 161Z" fill="#081a28" stroke="#081a28"></path><path d="M198 173L190 307L288 313Z" fill="#0c2435" stroke="#0c2435"></path><path d="M737 91L588 131L629 210Z" fill="#205a7a" stroke="#205a7a"></path><path d="M629 210L588 131L491 191Z" fill="#19435d" stroke="#19435d"></path><path d="M690 277L693 221L629 210Z" fill="#1d4e6b" stroke="#1d4e6b"></path><path d="M613 600L709 481L613 473Z" fill="#081a28" stroke="#081a28"></path><path d="M613 473L709 481L662 396Z" fill="#19435d" stroke="#19435d"></path><path d="M662 396L762 329L690 277Z" fill="#112e42" stroke="#112e42"></path><path d="M690 277L761 221L693 221Z" fill="#15384f" stroke="#15384f"></path><path d="M506 600L613 600L613 473Z" fill="#246688" stroke="#246688"></path><path d="M270 504L266 600L363 505Z" fill="#15384f" stroke="#15384f"></path><path d="M160 538L266 600L270 504Z" fill="#19435d" stroke="#19435d"></path><path d="M160 538L270 504L236 425Z" fill="#246688" stroke="#246688"></path><path d="M812 369L762 329L662 396Z" fill="#205a7a" stroke="#205a7a"></path><path d="M328 187L198 173L288 313Z" fill="#081a28" stroke="#081a28"></path><path d="M280 76L198 173L328 187Z" fill="#081a28" stroke="#081a28"></path><path d="M373 0L280 76L423 106Z" fill="#112e42" stroke="#112e42"></path><path d="M423 106L280 76L328 187Z" fill="#00101c" stroke="#00101c"></path><path d="M75 404L236 425L190 307Z" fill="#112e42" stroke="#112e42"></path><path d="M84 484L160 538L236 425Z" fill="#277297" stroke="#277297"></path><path d="M762 329L761 221L690 277Z" fill="#277297" stroke="#277297"></path><path d="M693 221L737 91L629 210Z" fill="#00101c" stroke="#00101c"></path><path d="M67 88L129 227L198 173Z" fill="#081a28" stroke="#081a28"></path><path d="M198 173L129 227L190 307Z" fill="#297ea6" stroke="#297ea6"></path><path d="M613 600L716 600L709 481Z" fill="#00101c" stroke="#00101c"></path><path d="M709 481L812 369L662 396Z" fill="#1d4e6b" stroke="#1d4e6b"></path><path d="M835 532L812 369L709 481Z" fill="#0c2435" stroke="#0c2435"></path><path d="M762 329L900 261L761 221Z" fill="#00101c" stroke="#00101c"></path><path d="M588 131L492 0L469 106Z" fill="#0c2435" stroke="#0c2435"></path><path d="M469 106L492 0L423 106Z" fill="#112e42" stroke="#112e42"></path><path d="M594 0L492 0L588 131Z" fill="#1d4e6b" stroke="#1d4e6b"></path><path d="M160 538L166 600L266 600Z" fill="#00101c" stroke="#00101c"></path><path d="M95 600L166 600L160 538Z" fill="#15384f" stroke="#15384f"></path><path d="M492 0L373 0L423 106Z" fill="#297ea6" stroke="#297ea6"></path><path d="M129 227L79 305L190 307Z" fill="#00101c" stroke="#00101c"></path><path d="M79 305L75 404L190 307Z" fill="#081a28" stroke="#081a28"></path><path d="M75 404L84 484L236 425Z" fill="#205a7a" stroke="#205a7a"></path><path d="M737 91L594 0L588 131Z" fill="#205a7a" stroke="#205a7a"></path><path d="M804 71L737 91L761 221Z" fill="#112e42" stroke="#112e42"></path><path d="M761 221L737 91L693 221Z" fill="#081a28" stroke="#081a28"></path><path d="M373 0L298 0L280 76Z" fill="#277297" stroke="#277297"></path><path d="M280 76L176 68L198 173Z" fill="#00101c" stroke="#00101c"></path><path d="M207 0L176 68L280 76Z" fill="#0c2435" stroke="#0c2435"></path><path d="M0 184L0 287L79 305Z" fill="#081a28" stroke="#081a28"></path><path d="M716 600L835 532L709 481Z" fill="#19435d" stroke="#19435d"></path><path d="M0 515L95 600L84 484Z" fill="#00101c" stroke="#00101c"></path><path d="M84 484L95 600L160 538Z" fill="#246688" stroke="#246688"></path><path d="M298 0L207 0L280 76Z" fill="#246688" stroke="#246688"></path><path d="M716 600L831 600L835 532Z" fill="#081a28" stroke="#081a28"></path><path d="M835 532L900 409L812 369Z" fill="#112e42" stroke="#112e42"></path><path d="M812 369L900 261L762 329Z" fill="#15384f" stroke="#15384f"></path><path d="M900 496L900 409L835 532Z" fill="#1d4e6b" stroke="#1d4e6b"></path><path d="M804 71L721 0L737 91Z" fill="#15384f" stroke="#15384f"></path><path d="M737 91L721 0L594 0Z" fill="#0c2435" stroke="#0c2435"></path><path d="M79 305L0 405L75 404Z" fill="#277297" stroke="#277297"></path><path d="M75 404L0 405L84 484Z" fill="#19435d" stroke="#19435d"></path><path d="M0 287L0 405L79 305Z" fill="#19435d" stroke="#19435d"></path><path d="M79 305L129 227L0 184Z" fill="#19435d" stroke="#19435d"></path><path d="M900 193L804 71L761 221Z" fill="#297ea6" stroke="#297ea6"></path><path d="M67 88L198 173L176 68Z" fill="#205a7a" stroke="#205a7a"></path><path d="M900 409L900 261L812 369Z" fill="#00101c" stroke="#00101c"></path><path d="M900 600L900 496L835 532Z" fill="#205a7a" stroke="#205a7a"></path><path d="M91 0L67 88L176 68Z" fill="#15384f" stroke="#15384f"></path><path d="M0 405L0 515L84 484Z" fill="#205a7a" stroke="#205a7a"></path><path d="M900 261L900 193L761 221Z" fill="#19435d" stroke="#19435d"></path><path d="M67 88L0 184L129 227Z" fill="#112e42" stroke="#112e42"></path><path d="M831 600L900 600L835 532Z" fill="#205a7a" stroke="#205a7a"></path><path d="M0 515L0 600L95 600Z" fill="#15384f" stroke="#15384f"></path><path d="M900 70L812 0L804 71Z" fill="#15384f" stroke="#15384f"></path><path d="M804 71L812 0L721 0Z" fill="#205a7a" stroke="#205a7a"></path><path d="M207 0L91 0L176 68Z" fill="#277297" stroke="#277297"></path><path d="M67 88L0 76L0 184Z" fill="#1d4e6b" stroke="#1d4e6b"></path><path d="M900 193L900 70L804 71Z" fill="#246688" stroke="#246688"></path><path d="M0 0L0 76L67 88Z" fill="#1d4e6b" stroke="#1d4e6b"></path><path d="M900 70L900 0L812 0Z" fill="#1d4e6b" stroke="#1d4e6b"></path><path d="M91 0L0 0L67 88Z" fill="#277297" stroke="#277297"></path></g></svg>